<svg width="34" height="34" viewBox="0 0 34 34" fill="none" xmlns="http://www.w3.org/2000/svg">
<mask id="mask0_849_187" style="mask-type:luminance" maskUnits="userSpaceOnUse" x="0" y="0" width="34" height="34">
<path d="M33.8134 0H0V34H33.8134V0Z" fill="white"/>
</mask>
<g mask="url(#mask0_849_187)">
<path d="M0 17C0 9.75007 0 6.12506 1.90566 3.62785C2.39626 2.98495 2.96857 2.40949 3.60794 1.91617C6.09144 0 9.69652 0 16.9067 0C24.1169 0 27.7219 0 30.2054 1.91617C30.8448 2.40949 31.4171 2.98495 31.9077 3.62785C33.8134 6.12506 33.8134 9.75007 33.8134 17C33.8134 24.2499 33.8134 27.8749 31.9077 30.3721C31.4171 31.0151 30.8448 31.5905 30.2054 32.0838C27.7219 34 24.1169 34 16.9067 34C9.69652 34 6.09144 34 3.60794 32.0838C2.96857 31.5905 2.39626 31.0151 1.90566 30.3721C0 27.8749 0 24.2499 0 17Z" fill="#E1E1E1"/>
<path fill-rule="evenodd" clip-rule="evenodd" d="M24.9071 21.6095L24.7652 21.7404C21.6798 24.5874 16.7078 23.0008 15.7923 18.8771L15.5231 17.6651C15.4772 17.4579 15.4542 17.3543 15.4409 17.3145C15.1981 16.5861 14.1806 16.5861 13.9377 17.3145C13.9245 17.3543 13.9014 17.4579 13.8554 17.6651L13.5864 18.877C12.6708 23.0008 7.69885 24.5874 4.61341 21.7404L4.47152 21.6095C3.14787 20.3881 2.39355 18.6587 2.39355 16.8455C2.39355 15.2238 3.69198 13.9091 5.29367 13.9091H18.1475H31.596C31.7881 13.9091 31.9803 14.1023 31.9803 14.2955C31.9803 15.6063 30.9149 16.6136 29.6748 16.6136H27.207C27.0825 16.6136 26.9851 16.7204 26.9851 16.8455C26.9851 18.6587 26.2308 20.3881 24.9071 21.6095Z" fill="#191919"/>
</g>
</svg>
