<svg width="33" height="10" viewBox="0 0 33 10" fill="none" xmlns="http://www.w3.org/2000/svg">
<path fill-rule="evenodd" clip-rule="evenodd" d="M25.1109 8.30431L24.9525 8.44548C21.5112 11.5158 15.9656 9.8048 14.9445 5.35763L14.6443 4.05056C14.5931 3.8271 14.5674 3.71536 14.5525 3.67248C14.2817 2.8869 13.1469 2.8869 12.8759 3.67248C12.8612 3.71536 12.8355 3.8271 12.7842 4.05056L12.4841 5.35753C11.4629 9.8048 5.91734 11.5158 2.47595 8.44548L2.31769 8.30431C0.84134 6.98716 0 5.12215 0 3.16669C0 1.41778 1.44821 0 3.23469 0H17.5714H32.5714C32.7856 0 33 0.208288 33 0.416678C33 1.83028 31.8117 2.91664 30.4285 2.91664H27.676C27.5372 2.91664 27.4286 3.03173 27.4286 3.16669C27.4286 5.12215 26.5872 6.98716 25.1109 8.30431Z" fill="#D6D6D6"/>
</svg>
