<svg width="71" height="22" viewBox="0 0 71 22" fill="none" xmlns="http://www.w3.org/2000/svg">
<path fill-rule="evenodd" clip-rule="evenodd" d="M54.0264 18.2695L53.6858 18.5801C46.2817 25.3348 34.3502 21.5706 32.1533 11.7868L31.5074 8.91123C31.3973 8.41961 31.342 8.1738 31.31 8.07947C30.7273 6.35118 28.2857 6.35118 27.7028 8.07947C27.6711 8.1738 27.6158 8.41961 27.5054 8.91123L26.8597 11.7866C24.6626 21.5706 12.7312 25.3348 5.32705 18.5801L4.98655 18.2695C1.81016 15.3718 0 11.2687 0 6.96671C0 3.11912 3.11586 0 6.95948 0H37.8051H70.0778C70.5388 0 71 0.458234 71 0.916691C71 4.02663 68.4433 6.41661 65.4675 6.41661H59.5453C59.2466 6.41661 59.013 6.66981 59.013 6.96671C59.013 11.2687 57.2028 15.3718 54.0264 18.2695Z" fill="#D6D6D6"/>
</svg>
